<svg width="36" height="36" viewBox="0 0 36 36" fill="none" xmlns="http://www.w3.org/2000/svg">
<path d="M28.6875 6.1875H7.3125C6.71576 6.1875 6.14347 6.42455 5.72151 6.84651C5.29955 7.26847 5.0625 7.84076 5.0625 8.4375V23.0625C5.0625 23.6592 5.29955 24.2315 5.72151 24.6535C6.14347 25.0754 6.71576 25.3125 7.3125 25.3125H14.0625L15.1875 26.4375H20.8125L21.9375 25.3125H28.6875C29.2842 25.3125 29.8565 25.0754 30.2785 24.6535C30.7004 24.2315 30.9375 23.6592 30.9375 23.0625V8.4375C30.9375 7.84076 30.7004 7.26847 30.2785 6.84651C29.8565 6.42455 29.2842 6.1875 28.6875 6.1875ZM28.6875 23.0625H7.3125V8.4375H28.6875V23.0625Z" fill="#54A5FF"/>
<path d="M7.3125 8.4375H28.6875V23.0625H7.3125V8.4375Z" fill="url(#paint0_linear_196:3334)"/>
<path d="M29.8125 29.8125H6.18754C2.84066 29.8125 1.78316 25.3125 3.93754 25.3125H14.0625L15.1875 26.4375H20.8125L21.9375 25.3125H32.0625C34.1944 25.3125 33.1875 29.8125 29.8125 29.8125Z" fill="#54C1FF"/>
<path d="M18 20.25C20.4853 20.25 22.5 18.2353 22.5 15.75C22.5 13.2647 20.4853 11.25 18 11.25C15.5147 11.25 13.5 13.2647 13.5 15.75C13.5 18.2353 15.5147 20.25 18 20.25Z" fill="#FE9661"/>
<path d="M18.2812 18H16.875C16.7258 18 16.5827 17.9407 16.4773 17.8352C16.3718 17.7298 16.3125 17.5867 16.3125 17.4375C16.3125 17.2883 16.3718 17.1452 16.4773 17.0398C16.5827 16.9343 16.7258 16.875 16.875 16.875H18.2812C18.3558 16.875 18.4274 16.8454 18.4801 16.7926C18.5329 16.7399 18.5625 16.6683 18.5625 16.5938C18.5625 16.5192 18.5329 16.4476 18.4801 16.3949C18.4274 16.3421 18.3558 16.3125 18.2812 16.3125H17.7188C17.3458 16.3125 16.9881 16.1643 16.7244 15.9006C16.4607 15.6369 16.3125 15.2792 16.3125 14.9062C16.3125 14.5333 16.4607 14.1756 16.7244 13.9119C16.9881 13.6482 17.3458 13.5 17.7188 13.5H19.125C19.2742 13.5 19.4173 13.5593 19.5227 13.6648C19.6282 13.7702 19.6875 13.9133 19.6875 14.0625C19.6875 14.2117 19.6282 14.3548 19.5227 14.4602C19.4173 14.5657 19.2742 14.625 19.125 14.625C17.7356 14.625 17.4375 14.5406 17.4375 14.9062C17.4375 14.9808 17.4671 15.0524 17.5199 15.1051C17.5726 15.1579 17.6442 15.1875 17.7188 15.1875H18.2812C18.6542 15.1875 19.0119 15.3357 19.2756 15.5994C19.5393 15.8631 19.6875 16.2208 19.6875 16.5938C19.6875 16.9667 19.5393 17.3244 19.2756 17.5881C19.0119 17.8518 18.6542 18 18.2812 18Z" fill="#F0F7FC"/>
<path d="M17.4375 14.0625V13.5C17.4375 13.3508 17.4968 13.2077 17.6023 13.1023C17.7077 12.9968 17.8508 12.9375 18 12.9375C18.1492 12.9375 18.2923 12.9968 18.3977 13.1023C18.5032 13.2077 18.5625 13.3508 18.5625 13.5V14.0625C18.5625 14.2117 18.5032 14.3548 18.3977 14.4602C18.2923 14.5657 18.1492 14.625 18 14.625C17.8508 14.625 17.7077 14.5657 17.6023 14.4602C17.4968 14.3548 17.4375 14.2117 17.4375 14.0625Z" fill="#F0F7FC"/>
<path d="M17.4375 18V17.4375C17.4375 17.2883 17.4968 17.1452 17.6023 17.0398C17.7077 16.9343 17.8508 16.875 18 16.875C18.1492 16.875 18.2923 16.9343 18.3977 17.0398C18.5032 17.1452 18.5625 17.2883 18.5625 17.4375V18C18.5625 18.1492 18.5032 18.2923 18.3977 18.3977C18.2923 18.5032 18.1492 18.5625 18 18.5625C17.8508 18.5625 17.7077 18.5032 17.6023 18.3977C17.4968 18.2923 17.4375 18.1492 17.4375 18Z" fill="#F0F7FC"/>
<defs>
<linearGradient id="paint0_linear_196:3334" x1="18" y1="23.0625" x2="18" y2="8.4375" gradientUnits="userSpaceOnUse">
<stop stop-color="#D3E6F5"/>
<stop offset="1" stop-color="#F0F7FC"/>
</linearGradient>
</defs>
</svg>
