<svg width="36" height="36" viewBox="0 0 36 36" fill="none" xmlns="http://www.w3.org/2000/svg">
<path d="M28.25 11.25V24.75C27.8024 24.75 27.3732 24.9278 27.0568 25.2443C26.7403 25.5607 26.5625 25.9899 26.5625 26.4375H22.625V19.9462C22.967 20.1446 23.3552 20.2494 23.7505 20.25C24.1459 20.2506 24.5344 20.147 24.877 19.9497C25.2196 19.7524 25.5041 19.4683 25.702 19.126C25.8998 18.7837 26.004 18.3953 26.004 18C26.004 17.6047 25.8998 17.2163 25.702 16.874C25.5041 16.5317 25.2196 16.2476 24.877 16.0503C24.5344 15.853 24.1459 15.7494 23.7505 15.75C23.3552 15.7506 22.967 15.8554 22.625 16.0538V9.5625H26.5625C26.5625 10.0101 26.7403 10.4393 27.0568 10.7557C27.3732 11.0722 27.8024 11.25 28.25 11.25Z" fill="url(#paint0_linear_196:3218)"/>
<path d="M30.5 9.5625V26.4375C30.5 27.0342 30.2629 27.6065 29.841 28.0285C29.419 28.4504 28.8467 28.6875 28.25 28.6875H22.625V26.4375H26.5625C26.5625 25.9899 26.7403 25.5607 27.0568 25.2443C27.3732 24.9278 27.8024 24.75 28.25 24.75V11.25C27.8024 11.25 27.3732 11.0722 27.0568 10.7557C26.7403 10.4393 26.5625 10.0101 26.5625 9.5625H22.625V7.3125H28.25C28.8467 7.3125 29.419 7.54955 29.841 7.97151C30.2629 8.39347 30.5 8.96576 30.5 9.5625Z" fill="#FE9661"/>
<path d="M20.375 4.5H7.75C7.15326 4.5 6.58097 4.73705 6.15901 5.15901C5.73705 5.58097 5.5 6.15326 5.5 6.75V29.25C5.5 29.8467 5.73705 30.419 6.15901 30.841C6.58097 31.2629 7.15326 31.5 7.75 31.5H20.375C20.9717 31.5 21.544 31.2629 21.966 30.841C22.3879 30.419 22.625 29.8467 22.625 29.25V6.75C22.625 6.15326 22.3879 5.58097 21.966 5.15901C21.544 4.73705 20.9717 4.5 20.375 4.5ZM20.375 27.5625C20.375 27.8609 20.2565 28.147 20.0455 28.358C19.8345 28.569 19.5484 28.6875 19.25 28.6875H8.875C8.57663 28.6875 8.29048 28.569 8.0795 28.358C7.86853 28.147 7.75 27.8609 7.75 27.5625V8.4375C7.75 8.13913 7.86853 7.85298 8.0795 7.642C8.29048 7.43103 8.57663 7.3125 8.875 7.3125H11.25L12.375 8.4375H15.75L16.875 7.3125H19.25C19.5484 7.3125 19.8345 7.43103 20.0455 7.642C20.2565 7.85298 20.375 8.13913 20.375 8.4375V27.5625Z" fill="#54A5FF"/>
<path d="M19.25 7.3125H16.875L15.75 8.4375H12.375L11.25 7.3125H8.875C8.57663 7.3125 8.29048 7.43103 8.07951 7.64201C7.86853 7.85298 7.75 8.13913 7.75 8.4375V27.5625C7.75 27.8609 7.86853 28.147 8.07951 28.358C8.29048 28.569 8.57663 28.6875 8.875 28.6875H19.25C19.5484 28.6875 19.8345 28.569 20.0455 28.358C20.2565 28.147 20.375 27.8609 20.375 27.5625V8.4375C20.375 8.13913 20.2565 7.85298 20.0455 7.64201C19.8345 7.43103 19.5484 7.3125 19.25 7.3125Z" fill="url(#paint1_linear_196:3218)"/>
<path d="M26 18.0001C25.9996 18.3948 25.8953 18.7825 25.6977 19.1243C25.5 19.466 25.216 19.7497 24.874 19.9469C24.532 20.1441 24.1442 20.2479 23.7494 20.2478C23.3547 20.2477 22.9669 20.1437 22.625 19.9463V16.0538C22.9669 15.8564 23.3547 15.7525 23.7494 15.7524C24.1442 15.7523 24.532 15.856 24.874 16.0532C25.216 16.2504 25.5 16.5341 25.6977 16.8759C25.8953 17.2176 25.9996 17.6053 26 18.0001Z" fill="#B4CDE1"/>
<path d="M23.75 14.0625C24.3713 14.0625 24.875 13.5588 24.875 12.9375C24.875 12.3162 24.3713 11.8125 23.75 11.8125C23.1287 11.8125 22.625 12.3162 22.625 12.9375C22.625 13.5588 23.1287 14.0625 23.75 14.0625Z" fill="#B4CDE1"/>
<path d="M23.75 24.1875C24.3713 24.1875 24.875 23.6838 24.875 23.0625C24.875 22.4412 24.3713 21.9375 23.75 21.9375C23.1287 21.9375 22.625 22.4412 22.625 23.0625C22.625 23.6838 23.1287 24.1875 23.75 24.1875Z" fill="#B4CDE1"/>
<defs>
<linearGradient id="paint0_linear_196:3218" x1="22.625" y1="18" x2="28.25" y2="18" gradientUnits="userSpaceOnUse">
<stop stop-color="#D3E6F5"/>
<stop offset="1" stop-color="#F0F7FC"/>
</linearGradient>
<linearGradient id="paint1_linear_196:3218" x1="372.375" y1="1097.44" x2="372.375" y2="285.188" gradientUnits="userSpaceOnUse">
<stop stop-color="#D3E6F5"/>
<stop offset="1" stop-color="#F0F7FC"/>
</linearGradient>
</defs>
</svg>
