<svg width="36" height="36" viewBox="0 0 36 36" fill="none" xmlns="http://www.w3.org/2000/svg">
<path d="M24.5 8.89345H11.5C8.46379 8.89678 6.00333 11.3572 6 14.3934V15.3934C6 15.6695 6.22387 15.8934 6.50001 15.8934H29.5C29.7761 15.8934 30 15.6695 30 15.3934V14.3934C29.9966 11.3572 27.5362 8.89678 24.5 8.89345Z" fill="#CEE9FF"/>
<path d="M26.4471 12.1696L24.33 7.93564C23.4656 6.20666 21.3633 5.50583 19.6343 6.3702C19.603 6.38586 19.5719 6.40203 19.541 6.41863L9.26308 11.9526C9.02008 12.0838 8.92943 12.3871 9.06058 12.6301C9.14777 12.7917 9.31652 12.8924 9.50008 12.8926H26.0001C26.2762 12.8926 26.5001 12.6687 26.5 12.3926C26.5 12.3148 26.4819 12.2381 26.4471 12.1686V12.1696Z" fill="#FE9661"/>
<path d="M9.50001 11.8937H26.5C28.433 11.8937 30 13.4607 30 15.3937V26.3937C30 28.3267 28.433 29.8937 26.5 29.8937H9.50001C7.56698 29.8937 6 28.3267 6 26.3937V15.3937C6 13.4607 7.56698 11.8937 9.50001 11.8937Z" fill="#54A5FF"/>
<path d="M29.4999 17.39H25.4999C23.5669 17.391 22.0007 18.9588 22.0017 20.8918C22.0027 22.8234 23.5683 24.389 25.4999 24.39H29.4999C29.776 24.39 29.9999 24.1661 29.9999 23.89V17.89C29.9999 17.6138 29.776 17.39 29.4999 17.39Z" fill="#6DCBFF"/>
<path d="M25.5 22.39C26.3284 22.39 27 21.7184 27 20.89C27 20.0616 26.3284 19.39 25.5 19.39C24.6716 19.39 24 20.0616 24 20.89C24 21.7184 24.6716 22.39 25.5 22.39Z" fill="white"/>
</svg>
